<svg width="16" height="17" viewBox="0 0 16 17" fill="none" xmlns="http://www.w3.org/2000/svg">
<circle cx="8" cy="8.5" r="6" fill="#9072EA" stroke="#9072EA" stroke-width="4"/>
<path fill-rule="evenodd" clip-rule="evenodd" d="M3.57603 5.8232L8.11122 3.16675L12.6464 5.8232C12.659 5.83052 12.6668 5.84422 12.6668 5.85886V11.1477C12.6668 11.1626 12.659 11.176 12.6464 11.1836L8.13158 13.828L8.131 13.8282L8.1304 13.8285L8.12979 13.8289L8.12919 13.8292L8.12858 13.8294L8.12798 13.8299L8.12735 13.8301L8.12674 13.8303L8.12612 13.8306L8.12549 13.8308L8.12486 13.8311L8.12423 13.8313L8.1236 13.8315L8.12295 13.8318L8.12232 13.832H8.12167L8.12104 13.8322L8.12039 13.8325H8.11974L8.11909 13.8327H8.11843L8.11778 13.8329H8.11713L8.11648 13.8332H8.11583H8.11506L8.11443 13.8334H8.11373H8.11287H8.1122H8.11155H8.11089H8.11024H8.10947H8.10878H8.10791L8.10726 13.8332H8.10661H8.10596L8.10531 13.8329H8.10466L8.10401 13.8327H8.10335L8.1027 13.8325H8.10205L8.1014 13.8322L8.10077 13.832H8.10012L8.09949 13.8318L8.09884 13.8315L8.09821 13.8313L8.09758 13.8311L8.09695 13.8308L8.09632 13.8306L8.0957 13.8303L8.09509 13.8301L8.09446 13.8299L8.09386 13.8294L8.09325 13.8292L8.09265 13.8289L8.09204 13.8285L8.09144 13.8282L8.09086 13.828L3.57603 11.1836C3.56344 11.176 3.55566 11.1626 3.55566 11.1477V5.85886C3.55566 5.84422 3.56344 5.83052 3.57603 5.8232ZM3.63712 11.1238L8.07049 13.7206V10.7938L6.15594 9.67248C6.14333 9.66492 6.13558 9.65146 6.13558 9.63659V7.3938L3.63712 5.9304V11.1238ZM10.0869 7.3938V9.66044L8.15195 10.7938V13.7206L12.5853 11.1238V5.9304L10.0869 7.3938ZM6.21704 9.61274L8.07049 10.6984V8.52712L6.21704 7.44149V9.61274ZM10.0054 7.45684L8.15195 8.54247V10.6984L10.0054 9.61274V7.45684ZM6.25776 7.36995L8.11122 8.45557L9.96468 7.36995L8.11122 6.28432L6.25776 7.36995ZM8.11122 6.18893L10.0461 7.32225L12.5446 5.85886L8.11122 3.26214L3.67785 5.85886L6.17631 7.32225L8.11122 6.18893Z" stroke="white" stroke-width="0.7" stroke-miterlimit="2" stroke-linejoin="round"/>
</svg>
